<?xml version="1.0" encoding="UTF-8" standalone="no"?>
<!-- Created with Inkscape (http://www.inkscape.org/) -->

<svg
   xmlns:dc="http://purl.org/dc/elements/1.1/"
   xmlns:cc="http://creativecommons.org/ns#"
   xmlns:rdf="http://www.w3.org/1999/02/22-rdf-syntax-ns#"
   xmlns:svg="http://www.w3.org/2000/svg"
   xmlns="http://www.w3.org/2000/svg"
   xmlns:sodipodi="http://sodipodi.sourceforge.net/DTD/sodipodi-0.dtd"
   xmlns:inkscape="http://www.inkscape.org/namespaces/inkscape"
   width="26.644236mm"
   height="46.08823mm"
   viewBox="0 0 26.644236 46.08823"
   version="1.1"
   id="svg8"
   inkscape:version="0.92.3 (2405546, 2018-03-11)"
   sodipodi:docname="note_8_rev.svg">
  <defs
     id="defs2" />
  <sodipodi:namedview
     id="base"
     pagecolor="#ffffff"
     bordercolor="#666666"
     borderopacity="1.0"
     inkscape:pageopacity="0.0"
     inkscape:pageshadow="2"
     inkscape:zoom="2.8"
     inkscape:cx="-5.4282303"
     inkscape:cy="69.385701"
     inkscape:document-units="mm"
     inkscape:current-layer="layer1"
     showgrid="false"
     fit-margin-top="0"
     fit-margin-left="0"
     fit-margin-right="0"
     fit-margin-bottom="0"
     inkscape:window-width="1920"
     inkscape:window-height="1012"
     inkscape:window-x="0"
     inkscape:window-y="0"
     inkscape:window-maximized="1"
     showguides="true"
     inkscape:guide-bbox="true"
     inkscape:snap-bbox="true"
     inkscape:bbox-paths="true"
     inkscape:bbox-nodes="true"
     inkscape:snap-bbox-edge-midpoints="true"
     inkscape:snap-bbox-midpoints="true"
     inkscape:object-paths="true"
     inkscape:snap-intersection-paths="true"
     inkscape:snap-midpoints="true"
     inkscape:snap-smooth-nodes="true"
     inkscape:snap-grids="true"
     inkscape:snap-object-midpoints="true"
     inkscape:snap-page="true"
     inkscape:snap-center="true">
    <sodipodi:guide
       position="10.952746,12.795868"
       orientation="1,0"
       inkscape:locked="false"
       id="guide2522" />
  </sodipodi:namedview>
  <metadata
     id="metadata5">
    <rdf:RDF>
      <cc:Work
         rdf:about="">
        <dc:format>image/svg+xml</dc:format>
        <dc:type
           rdf:resource="http://purl.org/dc/dcmitype/StillImage" />
        <dc:title />
      </cc:Work>
    </rdf:RDF>
  </metadata>
  <g
     inkscape:label="Layer 1"
     inkscape:groupmode="layer"
     id="layer1"
     transform="translate(-11.294716,-201.92013)">
    <path
       style="fill:#000000;fill-opacity:1;stroke-width:1;stroke:none"
       d="m 22.188625,201.92013 c -0.590742,0.003 -1.567504,0.0682 -2.030367,0.14779 -0.82754,0.14223 -1.95292,0.46391 -2.540414,0.72658 -0.08918,0.0399 -0.360092,0.1609 -0.60203,0.26871 -0.727525,0.32418 -1.793761,0.94611 -2.341976,1.36633 -1.640755,1.25768 -2.709368,2.64029 -3.172416,4.10311 l -0.152446,0.48162 -0.02739,13.72784 -0.02687,13.72733 0.0026,11.51041 -0.0026,0.0284 h 0.0026 0.335897 0.338997 0.03772 l 0.33538,-0.83302 0.298173,-0.66663 c 0.369138,-0.82488 0.778471,-1.73092 0.909505,-2.01331 0.131031,-0.28239 0.281971,-0.62278 0.335897,-0.75654 0.287791,-0.71387 1.288168,-2.72967 1.649511,-3.32383 0.325822,-0.53576 1.067802,-1.52064 2.645834,-3.51297 0.329616,-0.41615 0.803651,-1.02437 1.053682,-1.35134 0.250034,-0.32698 0.784511,-1.01976 1.187525,-1.53995 0.953782,-1.23109 0.967025,-1.2499 1.25522,-1.75648 1.08399,-1.90536 1.617989,-3.83074 1.617989,-5.83272 0,-3.00842 -1.296919,-7.76268 -2.408121,-8.82737 -0.268595,-0.25735 -0.452641,-0.29306 -0.624252,-0.12144 -0.125945,0.12594 -0.137288,0.37176 -0.02997,0.64854 0.04034,0.10403 0.150891,0.38335 0.245463,0.62115 0.291004,0.73171 0.644944,1.85387 0.75706,2.39934 0.05872,0.28569 0.142156,0.68955 0.185518,0.89762 0.317634,1.52418 0.420775,4.26249 0.199988,5.30872 -0.299054,1.4171 -0.836236,2.59512 -1.732194,3.79666 -0.452249,0.60649 -0.513815,0.67561 -1.245919,1.4087 -1.122468,1.12398 -1.690615,1.57652 -3.487125,2.77503 -1.052501,0.70217 -1.904104,1.07119 -2.594157,1.12448 l -0.216525,0.0165 v -6.21512 c 0,-10.14852 0.02043,-17.75396 0.04754,-17.75396 0.02609,0 0.08068,0.0403 0.121439,0.0894 0.121991,0.14699 0.599625,0.48163 0.914673,0.64131 1.693539,0.85839 4.310238,0.84698 6.711735,-0.0295 1.045537,-0.38157 2.507333,-1.12427 3.019971,-1.53427 0.07761,-0.0621 0.196033,-0.14919 0.263033,-0.19379 0.589699,-0.39247 1.688304,-1.43729 2.188497,-2.08101 1.125766,-1.44879 1.598332,-3.07461 1.272273,-4.37751 -0.146734,-0.58635 -0.345609,-0.99646 -0.686779,-1.41593 -0.295773,-0.36365 -0.370855,-0.43303 -0.77308,-0.71314 -0.598853,-0.41705 -1.310984,-0.692 -2.161625,-0.83509 -0.28239,-0.0475 -0.574229,-0.0979 -0.648539,-0.11162 -0.07781,-0.0144 -0.232001,-0.0202 -0.428914,-0.0191 z"
       id="path826"
       inkscape:connector-curvature="0" />
  </g>
</svg>
