<?xml version="1.0" encoding="UTF-8" standalone="no"?>
<!-- Created with Inkscape (http://www.inkscape.org/) -->

<svg
   xmlns:dc="http://purl.org/dc/elements/1.1/"
   xmlns:cc="http://creativecommons.org/ns#"
   xmlns:rdf="http://www.w3.org/1999/02/22-rdf-syntax-ns#"
   xmlns:svg="http://www.w3.org/2000/svg"
   xmlns="http://www.w3.org/2000/svg"
   xmlns:sodipodi="http://sodipodi.sourceforge.net/DTD/sodipodi-0.dtd"
   xmlns:inkscape="http://www.inkscape.org/namespaces/inkscape"
   width="26.644236mm"
   height="46.08823mm"
   viewBox="0 0 26.644236 46.08823"
   version="1.1"
   id="svg8"
   inkscape:version="0.92.3 (2405546, 2018-03-11)"
   sodipodi:docname="note_8.svg">
  <defs
     id="defs2" />
  <sodipodi:namedview
     id="base"
     pagecolor="#ffffff"
     bordercolor="#666666"
     borderopacity="1.0"
     inkscape:pageopacity="0.0"
     inkscape:pageshadow="2"
     inkscape:zoom="1.979899"
     inkscape:cx="-23.926615"
     inkscape:cy="152.779"
     inkscape:document-units="mm"
     inkscape:current-layer="layer1"
     showgrid="false"
     fit-margin-top="0"
     fit-margin-left="0"
     fit-margin-right="0"
     fit-margin-bottom="0"
     inkscape:window-width="1920"
     inkscape:window-height="1012"
     inkscape:window-x="0"
     inkscape:window-y="0"
     inkscape:window-maximized="1"
     inkscape:snap-bbox="true"
     inkscape:bbox-paths="true"
     inkscape:bbox-nodes="true"
     inkscape:snap-bbox-edge-midpoints="true"
     inkscape:snap-bbox-midpoints="true"
     inkscape:object-paths="true"
     inkscape:snap-intersection-paths="true"
     inkscape:snap-smooth-nodes="true"
     inkscape:snap-midpoints="true"
     inkscape:snap-object-midpoints="true"
     inkscape:snap-page="true"
     inkscape:snap-text-baseline="true"
     inkscape:snap-center="true" />
  <metadata
     id="metadata5">
    <rdf:RDF>
      <cc:Work
         rdf:about="">
        <dc:format>image/svg+xml</dc:format>
        <dc:type
           rdf:resource="http://purl.org/dc/dcmitype/StillImage" />
        <dc:title></dc:title>
      </cc:Work>
    </rdf:RDF>
  </metadata>
  <g
     inkscape:label="Layer 1"
     inkscape:groupmode="layer"
     id="layer1"
     transform="translate(-11.294716,-201.92013)">
    <path
       style="fill:#000000;stroke-width:1;fill-opacity:1"
       d="m 15.666086,247.98907 c -0.07431,-0.0137 -0.36616,-0.0639 -0.64855,-0.11138 -0.850641,-0.14309 -1.562977,-0.41837 -2.16183,-0.83542 -0.402225,-0.28011 -0.477377,-0.34943 -0.77315,-0.71308 -0.34117,-0.41947 -0.53999,-0.82934 -0.686725,-1.41569 -0.326058,-1.3029 0.1465,-2.92891 1.272266,-4.3777 0.500193,-0.64372 1.59892,-1.6883 2.188619,-2.08077 0.067,-0.0446 0.18531,-0.13185 0.262919,-0.19392 0.512638,-0.41 1.974262,-1.15252 3.019799,-1.53409 2.401497,-0.87644 5.018656,-0.88799 6.712195,-0.0296 0.315048,0.15968 0.792196,0.4945 0.914187,0.64149 0.04076,0.0491 0.09545,0.0893 0.121539,0.0893 0.02711,0 0.04743,-7.60552 0.04743,-17.75404 v -17.75404 h 0.338726 0.338729 l 0.671162,1.49977 c 0.369138,0.82488 0.778367,1.73082 0.909401,2.01321 0.131031,0.28239 0.282361,0.62287 0.336287,0.75664 0.287791,0.71386 1.288177,2.72965 1.64952,3.32381 0.325823,0.53576 1.067528,1.52065 2.64556,3.51298 0.329616,0.41615 0.803875,1.02417 1.053906,1.35114 0.250034,0.32698 0.784344,1.02012 1.187358,1.54031 0.953782,1.23109 0.967235,1.24991 1.25543,1.75649 1.08399,1.90536 1.618087,3.83056 1.618087,5.83254 0,3.00842 -1.297025,7.76268 -2.408228,8.82737 -0.268594,0.25735 -0.452729,0.29322 -0.62434,0.1216 -0.125945,-0.12594 -0.137317,-0.37177 -0.03,-0.64855 0.04034,-0.10403 0.150727,-0.38372 0.245299,-0.62152 0.291004,-0.73171 0.645093,-1.85356 0.757209,-2.39903 0.05872,-0.28569 0.142244,-0.68969 0.185606,-0.89776 0.317634,-1.52418 0.420812,-4.26262 0.200025,-5.30885 -0.299054,-1.4171 -0.836551,-2.59491 -1.732509,-3.79645 -0.452248,-0.60649 -0.513527,-0.6758 -1.245631,-1.40889 -1.122469,-1.12398 -1.690812,-1.57619 -3.487322,-2.7747 -1.052502,-0.70217 -1.904146,-1.07137 -2.594198,-1.12465 l -0.216183,-0.0167 -0.02702,13.72762 -0.02702,13.72763 -0.152532,0.48187 c -0.463048,1.46282 -1.532,2.84512 -3.172755,4.1028 -0.548215,0.42022 -1.614473,1.04238 -2.341998,1.36656 -0.241938,0.10781 -0.51285,0.22863 -0.602025,0.2685 -0.587494,0.26267 -1.712611,0.5846 -2.54015,0.72683 -0.617151,0.10607 -2.147838,0.18598 -2.459084,0.12839 z"
       id="path826"
       inkscape:connector-curvature="0" />
  </g>
</svg>
