<?xml version="1.0" encoding="UTF-8" standalone="no"?>
<!-- Created with Inkscape (http://www.inkscape.org/) -->

<svg
   xmlns:dc="http://purl.org/dc/elements/1.1/"
   xmlns:cc="http://creativecommons.org/ns#"
   xmlns:rdf="http://www.w3.org/1999/02/22-rdf-syntax-ns#"
   xmlns:svg="http://www.w3.org/2000/svg"
   xmlns="http://www.w3.org/2000/svg"
   xmlns:sodipodi="http://sodipodi.sourceforge.net/DTD/sodipodi-0.dtd"
   xmlns:inkscape="http://www.inkscape.org/namespaces/inkscape"
   width="52.47686mm"
   height="148.75485mm"
   viewBox="0 0 52.47686 148.75485"
   version="1.1"
   id="svg3247"
   inkscape:version="0.92.3 (2405546, 2018-03-11)"
   sodipodi:docname="trebleclef.svg">
  <defs
     id="defs3241" />
  <sodipodi:namedview
     id="base"
     pagecolor="#ffffff"
     bordercolor="#666666"
     borderopacity="1.0"
     inkscape:pageopacity="0.0"
     inkscape:pageshadow="2"
     inkscape:zoom="0.7"
     inkscape:cx="-7.6718416"
     inkscape:cy="147.81388"
     inkscape:document-units="mm"
     inkscape:current-layer="layer1"
     showgrid="false"
     fit-margin-top="0"
     fit-margin-left="0"
     fit-margin-right="0"
     fit-margin-bottom="0"
     inkscape:window-width="1920"
     inkscape:window-height="1012"
     inkscape:window-x="0"
     inkscape:window-y="0"
     inkscape:window-maximized="1" />
  <metadata
     id="metadata3244">
    <rdf:RDF>
      <cc:Work
         rdf:about="">
        <dc:format>image/svg+xml</dc:format>
        <dc:type
           rdf:resource="http://purl.org/dc/dcmitype/StillImage" />
        <dc:title></dc:title>
      </cc:Work>
    </rdf:RDF>
  </metadata>
  <g
     inkscape:label="Layer 1"
     inkscape:groupmode="layer"
     id="layer1"
     transform="translate(-67.527837,-54.568544)">
    <path
       style="fill:#000000;stroke-width:1;stroke:none"
       d="m 90.417358,202.79031 c -5.03753,-1.31877 -8.98371,-4.09634 -10.88311,-7.66022 -0.56104,-1.05268 -0.63172,-1.52726 -0.63172,-4.24172 0,-3.00143 0.0179,-3.09276 0.99739,-5.07452 1.11562,-2.25728 2.52035,-3.51699 4.76655,-4.27443 5.43288,-1.83202 11.13691,3.1225 9.98469,8.6727 -0.54094,2.6057 -2.87256,5.10739 -5.36373,5.75498 -1.52302,0.39591 -1.61214,0.86184 -0.42375,2.21534 1.06532,1.21334 1.8577,1.61312 3.96784,2.00193 1.4127,0.2603 2.05134,0.24398 3.71315,-0.0949 3.960702,-0.8077 6.844922,-2.89413 8.398282,-6.07526 1.74331,-3.57012 1.62,-6.86134 -0.79535,-21.22812 -0.43963,-2.61501 -0.83031,-4.78554 -0.86817,-4.8234 -0.0379,-0.0379 -1.07331,0.12124 -2.301,0.35356 -3.197212,0.60502 -10.130102,0.38014 -13.080072,-0.42428 -9.99881,-2.72656 -17.17513,-10.90102 -19.75104,-22.49819 -0.51238,-2.30681 -0.61747,-3.54121 -0.61947,-7.27604 -0.003,-5.76263 0.59344,-8.38736 3.06669,-13.49375 2.80752,-5.79652 6.28583,-10.23882 15.92773,-20.34194 l 3.651,-3.82564 -0.92332,-5.511001 c -1.39486,-8.3254 -1.79487,-11.79735 -1.77808,-15.43288 0.0505,-10.941007 5.36195,-22.776763 11.10996,-24.757113 3.886712,-1.33908 7.914392,4.628471 9.698142,14.369102 0.23349,1.275017 0.49207,4.465779 0.57462,7.090581 0.44457,14.13503 -3.16269,24.776961 -11.410912,33.663861 -1.79371,1.9326 -2.24777,2.57799 -2.14066,3.0427 0.27899,1.21051 2.7818,13.55081 2.7818,13.71587 0,0.0945 1.2915,0.11058 2.869992,0.0358 5.52628,-0.26194 9.21608,1.14134 13.04149,4.95986 1.98368,1.98009 2.46098,2.64615 3.61485,5.04441 1.62338,3.37412 2.15479,5.38364 2.35534,8.90666 0.50816,8.92674 -4.08608,16.94105 -11.79445,20.57457 -1.95599,0.922 -1.89646,-0.0413 -0.47444,7.6777 1.38072,7.49488 1.83246,11.05601 1.81241,14.2875 -0.0317,5.10802 -1.25795,8.47779 -4.14674,11.3953 -2.6526,2.67897 -5.768842,3.82858 -10.310602,3.80367 -1.74462,-0.01 -3.33562,-0.19238 -4.63531,-0.53263 z m 10.181002,-37.54462 c 2.1544,-0.47209 2.11448,-0.39163 1.59709,-3.2192 -1.12595,-6.1534 -4.877772,-24.8964 -5.010042,-25.02867 -0.36021,-0.36021 -2.70701,0.90541 -4.14155,2.23355 -5.05469,4.67974 -4.83423,11.59446 0.55358,17.36367 1.01285,1.08455 1.84155,2.09654 1.84155,2.24887 0,0.64039 -0.62972,0.54878 -2.31494,-0.33677 -3.5812,-1.88188 -6.82585,-4.98246 -8.34128,-7.97094 -2.27552,-4.48741 -1.94543,-9.83292 0.89913,-14.56053 1.86241,-3.09529 5.6037,-6.43323 8.605,-7.67731 0.56089,-0.23249 1.05793,-0.45826 1.10455,-0.50171 0.12998,-0.12115 -2.38654,-12.6698 -2.58676,-12.89891 -0.20249,-0.2317 -7.34403,6.06583 -10.4114,9.18095 -4.05754,4.12072 -6.5024,8.12874 -7.78201,12.75757 -0.65073,2.35394 -0.71817,3.01145 -0.70138,6.83771 0.0217,4.93451 0.47768,7.11644 2.21187,10.58333 2.93335,5.86419 8.39917,9.74032 15.70343,11.1362 2.09909,0.40115 6.61525,0.32506 8.773162,-0.14781 z m 8.30697,-4.28166 c 2.70575,-2.67337 3.99616,-5.96547 3.99616,-10.19506 0,-5.89576 -3.01493,-11.23372 -7.54123,-13.35184 -1.66475,-0.77902 -5.15877,-1.38534 -5.15877,-0.89519 0,0.10805 0.60291,3.07115 1.33979,6.58466 0.73689,3.51351 1.93114,9.30523 2.65389,12.87049 1.67657,8.27036 1.41838,7.52236 2.39865,6.94904 0.43892,-0.25671 1.4791,-1.13966 2.31151,-1.9621 z M 96.376268,93.741859 c 6.246852,-7.41129 8.852302,-13.00408 8.852302,-19.00211 0,-3.660315 -0.8599,-5.934183 -2.54683,-6.734685 -1.5552,-0.737991 -3.006092,-0.182792 -5.127362,1.962046 -3.16555,3.200722 -5.072,8.321929 -5.8455,15.702469 -0.30063,2.86853 -0.17987,5.43511 0.43859,9.32105 0.20844,1.30969 0.37945,2.49391 0.38004,2.63159 0.002,0.38299 1.69033,-1.31958 3.84876,-3.88036 z"
       id="path3803"
       inkscape:connector-curvature="0" />
  </g>
</svg>
